<svg xmlns="http://www.w3.org/2000/svg" width="67.948" height="60.395" viewBox="0 0 67.948 60.395">
  <g id="Group_25" data-name="Group 25" transform="translate(-274.072 -483.181)">
    <path id="Path_211" data-name="Path 211" d="M35.676,10.182c7.166,0,9.382-7.09,14.874-2.932A31.647,31.647,0,0,1,31.282,64.007,29.07,29.07,0,0,1,7.8,52.6C3.78,47.422-3.03,37.765-3.03,30.075c0-10.243,7.529-17.065,15.279-23C17.377,3.139,28.44,10.182,35.676,10.182Z" transform="matrix(-0.999, -0.035, 0.035, -0.999, 336.758, 549.345)" fill="#9db6cb"/>
    <path id="Path_83" data-name="Path 83" d="M711.805,51.573s13.757-11.851,16.85-24.649c5.012,3.466,22.022,5.385,25.328,3.306.267,4.532,3.626,15.357,9.811,17.6-2.613,2.346-10.558,4.319-14.77,4.266C746.464,52.306,711.805,51.573,711.805,51.573Z" transform="translate(-430.487 472.437)" fill="#1d3557"/>
    <path id="Path_84" data-name="Path 84" d="M735.839,27.41a53.893,53.893,0,0,0,19.236,24.325" transform="translate(-437.412 472.498)" fill="none" stroke="#737999" stroke-linecap="round" stroke-width="0.6"/>
    <path id="Path_85" data-name="Path 85" d="M707.19,51.563s14.646-15.133,19.548-25.635c9.986,3.013,14.385,3.8,25.884,3.19,2.854,9.7,11.242,19.355,11.242,19.355" transform="translate(-428.728 472.67)" fill="none" stroke="#fff" stroke-width="0.6"/>
    <path id="Path_86" data-name="Path 86" d="M724.305,52.535l-.6-4.919s4.673-3.11,5.692-5.914c1.635-3.6,3.349-12.592,3.349-12.592s2.281,13.632,9.092,16.267c-2.623,1.241-3.41,7.364-3.41,7.364Z" transform="translate(-434.53 471.492)" fill="#cfd8e6"/>
    <path id="Path_87" data-name="Path 87" d="M911.634,124.452s-12.4,2.4-18.656-1.2C902.022,130.333,911.634,124.452,911.634,124.452Z" transform="translate(-588.688 379.382)" fill="#606580"/>
    <path id="Path_88" data-name="Path 88" d="M911.634,125.4s1.77,11,7.778,14.987C911.895,139.871,911.634,125.4,911.634,125.4Z" transform="translate(-588.688 379.382)" fill="#606580"/>
    <path id="Path_117" data-name="Path 117" d="M885.822,118.738s.175,1.968,1.049,2.3" transform="translate(-587.999 379.569)" fill="none" stroke="#fff" stroke-linecap="round" stroke-width="1"/>
    <path id="Path_118" data-name="Path 118" d="M885.822,118.738s.175,1.968,1.049,2.3" transform="translate(901.887 1183.98) rotate(-138)" fill="none" stroke="#fff" stroke-linecap="round" stroke-width="1"/>
    <path id="Path_119" data-name="Path 119" d="M885.822,118.738s.175,1.968,1.049,2.3" transform="matrix(-0.309, -0.951, 0.951, -0.309, 493.184, 1398.929)" fill="none" stroke="#fff" stroke-linecap="round" stroke-width="1"/>
    <path id="Path_120" data-name="Path 120" d="M885.822,118.738s.175,1.968,1.049,2.3" transform="translate(-540.175 876.195) rotate(-31)" fill="none" stroke="#fff" stroke-linecap="round" stroke-width="1"/>
  </g>
</svg>


