<svg xmlns="http://www.w3.org/2000/svg" width="63.55" height="63.255" viewBox="0 0 63.55 63.255">
  <g id="Group_24" data-name="Group 24" transform="translate(-186.716 -484.875)">
    <path id="Path_216" data-name="Path 216" d="M32.5,0A32.609,32.609,0,0,1,63.177,21.741c1.144,3.163.993,9.331.912,11.693S63.6,45.109,59.449,52.6,40.518,64.324,32.291,63.021,23.527,53.254,17.01,47.308s-12.431-.815-14.931-7.25S.7,24.8,2.079,21.038A32.418,32.418,0,0,1,32.5,0Z" transform="translate(186.122 484.875)" fill="#9db6cb"/>
    <path id="Path_35" data-name="Path 35" d="M728.4,68.759,707.713,39.225a21.134,21.134,0,0,0-2.4-6.9" transform="translate(-486.823 461.039)" fill="none" stroke="#fff" stroke-width="0.6"/>
    <path id="Path_36" data-name="Path 36" d="M729.436,38.255s1.837-.707,1.79,0-2.12,1.7-2.073.942S729.436,38.255,729.436,38.255Z" transform="translate(-509.595 462.126)" fill="none" stroke="#fff" stroke-width="0.6"/>
    <path id="Path_37" data-name="Path 37" d="M712.319,66.441,725.8,39.873l15.862,26.568Z" transform="translate(-504.895 461.47)" fill="#1d3557"/>
    <path id="Path_38" data-name="Path 38" d="M732.65,70.473l3.407-3.428s-5.105-1.563-5.834-5.834a36.58,36.58,0,0,1-.521-7.605l-3.552,16.867Z" transform="translate(-508.675 457.438)" fill="#cfd8e6"/>
    <path id="Path_39" data-name="Path 39" d="M743.483,66.756a83.71,83.71,0,0,1-13.194-26.829c-.087.032-2.13,7.855,0,10.123s0-10.123,0-10.123" transform="translate(-509.301 461.094)" fill="none" stroke="#737999" stroke-linecap="round" stroke-width="0.3"/>
    <path id="Path_40" data-name="Path 40" d="M714.493,72.451s5.758-4.936,7.785-11.342c-.081,4.3-4.055,11.342-4.055,11.342Z" transform="translate(-504.804 455.46)" fill="#737999"/>
    <line id="Line_28" data-name="Line 28" x1="4" y2="17" transform="translate(217.026 501.35)" fill="none" stroke="#737999" stroke-width="0.2"/>
    <path id="Path_44" data-name="Path 44" d="M694.146,37.159c-1.645-.983-1.859-3.509.372-2.869s4.727-1.106,7.674.275.055,3.247-2.5,2.477S695.791,38.142,694.146,37.159Z" transform="translate(-490.733 468.331)" fill="#fff"/>
    <path id="Path_45" data-name="Path 45" d="M694.146,37.159c-1.045-2.084,2.648-1.865,4.878-1.225s.22-2.749,3.168-1.368-.273,4.2-2.828,3.435S695.191,39.243,694.146,37.159Z" transform="translate(-495.943 464.229)" fill="#fff"/>
    <path id="Subtraction_2" data-name="Subtraction 2" d="M-580.5,1a2.482,2.482,0,0,1-1-.208A2.5,2.5,0,0,0-580-1.5a2.5,2.5,0,0,0-1.5-2.291,2.483,2.483,0,0,1,1-.208A2.5,2.5,0,0,1-578-1.5,2.5,2.5,0,0,1-580.5,1Z" transform="translate(789.439 503.066)" fill="#efd378"/>
    <path id="Path_41" data-name="Path 41" d="M737.272,52.5s-2.064-3.117-3.725-6.287-2.993-6.459-2.993-6.459a44.928,44.928,0,0,0,2.778,9.818C735.163,53.471,737.272,52.5,737.272,52.5Z" transform="translate(-506.531 470.834)" fill="#737999"/>
    <path id="Path_80" data-name="Path 80" d="M705.315,68.759,726,39.225a21.134,21.134,0,0,1,2.4-6.9" transform="translate(-504.842 461.039)" fill="none" stroke="#fff" stroke-width="0.6"/>
  </g>
</svg>


