<svg xmlns="http://www.w3.org/2000/svg" xmlns:xlink="http://www.w3.org/1999/xlink" width="315.82" height="386.588" viewBox="0 0 315.82 386.588">
  <defs>
    <linearGradient id="linear-gradient" x1="0.381" y1="0.5" x2="1" y2="0.908" gradientUnits="objectBoundingBox">
      <stop offset="0" stop-color="#fff"/>
      <stop offset="1" stop-color="#d6d6d6"/>
      <stop offset="1" stop-color="gray"/>
    </linearGradient>
    <linearGradient id="linear-gradient-2" x1="0.5" y1="0.621" x2="0.117" y2="0.554" gradientUnits="objectBoundingBox">
      <stop offset="0" stop-color="#fff"/>
      <stop offset="1" stop-color="#e3e3e3"/>
      <stop offset="1" stop-color="gray"/>
    </linearGradient>
  </defs>
  <g id="Group_26" data-name="Group 26" transform="translate(-22.823 -61.412)">
    <path id="Path_181" data-name="Path 181" d="M-240,467.467C-203.619,445.019-71.856,409.884-41.373,275.2c8.047-35.557,15.733-89.79,38.349-101.5s30.538,19.238,33.432,42.943c3.933,32.207,27.533,272.3-4.917,306.457s-246.809,43.919-279.258,25.375S-276.383,489.914-240,467.467Z" transform="translate(296.267 -109.727)" fill="#1d3557"/>
    <path id="Path_207" data-name="Path 207" d="M-255.529,486c.628-19.909,40.027-9.235,74.714-23.258s64.208,19.189,105.537,3.69,99.122-35.539,94.58-13.966S-1.7,487.661-44.281,497.88s-118.651,9.083-145.9,9.083S-256.157,505.906-255.529,486Z" transform="translate(296.732 -69.28)" fill="#CFD8E6" opacity="0.1"/>
    <path id="Path_145" data-name="Path 145" d="M1082,401.412c-.622-1.972-.233-11.4,1.978-18.034-2.56-.814-7.8,4.188-12.682,3.956-.349-4.072,5.7-13.263,5.7-13.263s-3.374,1.978-5.7,1.978,6.283-15.009,6.283-15.009-4.661,2.869-6.283,1.978,11.115-25.675,15.59-25.882,14.893,25.416,14.079,25.882-6.166-1.978-6.166-1.978,7.18,14.257,6.166,15.009-5.119-1.978-5.119-1.978,6.4,12.565,5.119,13.263-11.635-3.956-11.635-3.956,3.408,15.855,1.861,18.034C1088.949,403.02,1084.819,403.639,1082,401.412Z" transform="translate(-1012.919 -40.8)" fill="#9db6cb"/>
    <path id="Path_182" data-name="Path 182" d="M1082,401.412c-.622-1.972-.233-11.4,1.978-18.034-2.56-.814-7.8,4.188-12.682,3.956-.349-4.072,5.7-13.263,5.7-13.263s-3.374,1.978-5.7,1.978,6.283-15.009,6.283-15.009-4.661,2.869-6.283,1.978,11.115-25.675,15.59-25.882,14.893,25.416,14.079,25.882-6.166-1.978-6.166-1.978,7.18,14.257,6.166,15.009-5.119-1.978-5.119-1.978,6.4,12.565,5.119,13.263-11.635-3.956-11.635-3.956,3.408,15.855,1.861,18.034C1088.949,403.02,1084.819,403.639,1082,401.412Z" transform="translate(-975.482 -57.844)" fill="#9db6cb"/>
    <path id="Path_193" data-name="Path 193" d="M-880.217,1770.283c.189-.028,6.32-12.6,6.32-12.6l-.463-.231.694-.925v-1.118s-.617,0-.694-.886.193-1.041.193-1.041h-.771v-.925l-16.351-7.821,2.149-.586,14.2,7.49a2.893,2.893,0,0,1,1.146-.13c.456.091.958.228.958.228l.8-.753v-2.8h1.961l-.114,2.942,1.254,1.435.935.139v.342l17.727,3.527a1.582,1.582,0,0,1,.5-.27,2.171,2.171,0,0,1,.732,0l3.276-7.245,1.58.463-1.888,4.625.5.462-1.195,1.965a1.079,1.079,0,0,1,.694.925,1.077,1.077,0,0,1-.424,1.041l-.27,1.31a1.128,1.128,0,0,1,.694.655.868.868,0,0,1,0,.848l4.2,6.4a.93.93,0,0,1,.421-.062,15.489,15.489,0,0,1,1.241,1.714,1.3,1.3,0,0,1-.432,1,1.593,1.593,0,0,1-1.066.27l-1.187-1.849a.708.708,0,0,1,.189-.337c.135-.108-4.291-6.6-4.291-6.6s-.729-.634-.985-.391-.175,1.687-.175,1.687l-.459-.054-1.583,14.862s.2.061.2.228-.058,3.027-.135,3.363a1.154,1.154,0,0,1-1.316.9c-.9-.094-1.018-1.171-1-1.418s.529-3.072.529-3.072a.661.661,0,0,1,.322-.053c.166.021,1.6-14.81,1.6-14.81l-.438-.108a2.3,2.3,0,0,0,0-1.984,1.431,1.431,0,0,0-1.754-.783l-.23-.661-17.2-3.519s.154.253,0,.375-.249.054-.249.054l1.538,5.33a.539.539,0,0,1,.391.283c.135.257.553,1.106.553,1.106a1.279,1.279,0,0,1-.675,1.269c-.769.324-1.309-.7-1.309-.7l-.095-1.552s.108-.188.189-.188-1.484-5.047-1.484-5.047-.243-.54-.729-.338-.891,1.7-.891,1.7l-.526-.108-6.224,12.692s.211.149.19.273-1.111,2.73-1.111,2.73a1.161,1.161,0,0,1-1.484.363c-1-.415-.415-1.578-.415-1.578a23.973,23.973,0,0,1,1.412-2.443C-880.395,1770.262-880.406,1770.312-880.217,1770.283Z" transform="translate(1124.103 -1368.513)" fill="#fff"/>
    <path id="Path_194" data-name="Path 194" d="M-910.587,1523.728s-.769,2.181.449,3.527a8.668,8.668,0,0,0,3.527,1.988l31.811,6.927s6.8,1.09,10.2-.449,5.58-6.156,5.58-6.156l13.276-31.875a3.459,3.459,0,0,0-.513-3.271c-1.218-1.539-6.67-1.09-6.67-1.09s-7.312.3-15.008-.192-15.777-1.8-15.777-1.8a6.2,6.2,0,0,0-4.233.577,15.934,15.934,0,0,0-4.04,3.976s-3.066,5.355-7.716,12.314S-910.587,1523.728-910.587,1523.728Z" transform="translate(1141.581 -1151.811)" fill="#fff"/>
    <path id="Path_197" data-name="Path 197" d="M-885.094,1500.065s1.705-1.279,2.132-1.042,2.463,9.758,2.653,10.848a86.073,86.073,0,0,1,.568,8.858c-.095,1.421-.995,10.042-3.411,12.505s-2.89,2.889-3.742,3.316-6.016.095-7.39-.237-9.284-1.421-10.09-1.847a2.334,2.334,0,0,1-.853-2.511c.142-1.042,3.766-4.63,8.384-11.558s9.569-15.395,10.09-16.153S-885.094,1500.065-885.094,1500.065Z" transform="translate(1138.084 -1157.931)" fill="url(#linear-gradient)"/>
    <path id="Path_198" data-name="Path 198" d="M-593.354,1529.115a106.012,106.012,0,0,1,6.961-9.915c1.256-1.306,2.161-3.115,2.462-3.316s.955,1.156.9,1.91S-596.843,1551-596.843,1551s-2.01,3.818-3.869,4.924-2.261.9-2.261.9S-596.321,1533.485-593.354,1529.115Z" transform="translate(876.442 -1173.053)" fill="url(#linear-gradient-2)"/>
    <path id="Path_195" data-name="Path 195" d="M-776.2,1679.441c.413.252,2.454-1.1,3.9-3.761a14.8,14.8,0,0,0,1.628-5.435s-2.568,3.394-3.21,4.357S-776.615,1679.189-776.2,1679.441Z" transform="translate(1027.299 -1302.651)" fill="#1d3557"/>
    <path id="Path_196" data-name="Path 196" d="M-592.838,1687.6s-2.044,5.71-2.238,6.748-1.135,4.509-1.071,4.931,1.3-.032,1.946-2.336C-592.092,1689.74-592.838,1687.6-592.838,1687.6Z" transform="translate(870.619 -1316.688)" fill="#1d3557"/>
    <path id="Path_199" data-name="Path 199" d="M-492.646,1336.006s5.349,1.861,8.528-1.085a7.536,7.536,0,0,0,2.093-7.055,3.7,3.7,0,0,1-2.868,2.326c-2.248.388-2.558,1.783-2.558,1.783s-1.318-4.652.543-6.822,1.938-5.117,2.016-6.512a14.677,14.677,0,0,0-1.085-4.264s-.62,3.411-1.938,4.807a15.146,15.146,0,0,0-2.326,3.8,19.69,19.69,0,0,1,.775-5.582,9.82,9.82,0,0,0,.7-5.892c-.465-1.861-2.093-2.093-2.791-4.264a13,13,0,0,1-.465-4.574s-2.558,3.179-2.791,4.574.465,3.489,0,5.272-1.938,3.644-2.093,4.884-.388,3.566-.388,3.566a8.781,8.781,0,0,1-.775-3.566c0-2.016.543-2.714.31-4.264a14.947,14.947,0,0,0-1.861-4.109s1.163,3.411.465,5.349-3.566,6.59-3.489,10.078,2.171,8.683,4.109,10.078S-492.646,1336.006-492.646,1336.006Z" transform="translate(654.15 -924.827)" fill="#fff"/>
    <path id="Path_200" data-name="Path 200" d="M-466.627,1373.3a2.567,2.567,0,0,1,.114-1.712c.4-.77,1.8-1.027,2.225-2.168s-1.37-3-1.37-3a3.467,3.467,0,0,1-.171,2.425c-.6,1.027-1.284,1.313-1.512,2.311A3.034,3.034,0,0,0-466.627,1373.3Z" transform="translate(317.544 -1041.033) rotate(-13)" fill="#fff"/>
    <path id="Path_202" data-name="Path 202" d="M-466.543,1374.076a2.854,2.854,0,0,1,.127-1.9c.444-.857,2-1.142,2.475-2.412s-1.523-3.332-1.523-3.332a3.855,3.855,0,0,1-.19,2.7c-.666,1.142-1.428,1.46-1.682,2.57A3.374,3.374,0,0,0-466.543,1374.076Z" transform="translate(-137.785 -1029.729) rotate(-31)" fill="#fff"/>
    <path id="Path_203" data-name="Path 203" d="M.459,0a3.5,3.5,0,0,0,.07,1.579c.245.71,1.1.947,1.363,2s-.839,2.763-.839,2.763a4.723,4.723,0,0,0-.1-2.237C.581,3.158.162,2.895.022,1.974A3.715,3.715,0,0,1,.459,0Z" transform="matrix(0.995, -0.105, 0.105, 0.995, 154.432, 374.13)" fill="#fff"/>
    <path id="Path_204" data-name="Path 204" d="M-177.821,492.854l5.624-10-.382,2.063s4.585-8.1,4.815-8.1a37.137,37.137,0,0,1,2.216,4.2l-8.483,12.686Z" transform="translate(325.272 -71.28)" fill="#fff"/>
    <path id="Path_205" data-name="Path 205" d="M0,3.974l4.815,6.878L4.433,8.789s3.565,7.1,3.794,7.1,5.089-1.515,5.089-1.515L2.98,0Z" transform="matrix(0.995, 0.105, -0.105, 0.995, 160.904, 405.678)" fill="#fff"/>
    <path id="Path_206" data-name="Path 206" d="M.591,11.851,4.815,6.037,4.433,8.1S9.018,0,9.247,0a37.137,37.137,0,0,1,2.216,4.2L5.448,14.95Z" transform="matrix(0.809, -0.588, 0.588, 0.809, 150.124, 414.212)" fill="#fff"/>
  </g>
</svg>
