<svg xmlns="http://www.w3.org/2000/svg" width="65.173" height="60.467" viewBox="0 0 65.173 60.467">
  <g id="Group_22" data-name="Group 22" transform="translate(-12.051 -484.376)">
    <path id="Path_214" data-name="Path 214" d="M39.89,9.991c9.64,3.223,11.056-5.463,16.928,0S65,23.238,65,32.5c0,17.949-14.736,30.708-32.686,30.708S2.3,46.688-.173,27c0-12.8,8.673-18.446,17.207-22.851S30.249,6.767,39.89,9.991Z" transform="translate(12.224 481.636)" fill="#9db6cb"/>
    <path id="Path_53" data-name="Path 53" d="M673.461,56.836s11.882-29.394,27.125-29.215,25.227,29.215,25.227,29.215" transform="translate(-654.337 470.782)" fill="none" stroke="#fff" stroke-width="0.6"/>
    <path id="Path_55" data-name="Path 55" d="M677.526,55.719a81.605,81.605,0,0,0,7.194-14.63c5.553-2.948,9.882-3.795,16.682-11.938,3,4.111,8.617,8.459,15.575,11.147-.237,3.637,5.079,13.684,7.511,15.421" transform="translate(-655.707 470.863)" fill="#1d3557"/>
    <path id="Path_54" data-name="Path 54" d="M696,57.556s1.673-25.009,13.987-29.934" transform="translate(-663.7 470.699)" fill="none" stroke="#fff" stroke-width="0.6"/>
    <path id="Path_56" data-name="Path 56" d="M697.886,55.4a25.388,25.388,0,0,0,1.58-10.478c6.05-4.793,10.179-15.731,10.179-15.731" transform="translate(-663.943 470.968)" fill="none" stroke="#737999" stroke-linecap="round" stroke-width="0.6"/>
    <path id="Path_58" data-name="Path 58" d="M728.975,60.169c-3.472-.712-9.981-5.2-12.151-8.541.564,3.514,3.732,10.854,4.687,11.3S727.066,61.682,728.975,60.169Z" transform="matrix(0.966, 0.259, -0.259, 0.966, -635.224, 276.442)" fill="#8d99ae"/>
    <path id="Path_59" data-name="Path 59" d="M710.516,51.622c1.627-1.059,7.156-1.911,9.346.286,2.5,2.147.713,8.767.158,11.091C716.823,61.782,710.821,53.967,710.516,51.622Z" transform="translate(-666.7 460.206)" fill="#cfd8e6"/>
    <path id="Path_60" data-name="Path 60" d="M745.985,49.021a2.312,2.312,0,0,0,2.159-.961" transform="translate(-684.843 462.189)" fill="none" stroke="#fff" stroke-linecap="round" stroke-width="1"/>
    <path id="Path_61" data-name="Path 61" d="M718.6,26.48c-.548-.155-.961.914-.4,2s.651,1.17,1.167.353A1.687,1.687,0,0,0,718.6,26.48Z" transform="translate(-673.29 470.636)" fill="none" stroke="#fff" stroke-width="0.6"/>
    <path id="Path_64" data-name="Path 64" d="M745.955,48.863a2.378,2.378,0,0,0,2.438-.781" transform="translate(-677.175 477.455)" fill="none" stroke="#fff" stroke-linecap="round" stroke-width="1"/>
    <path id="Path_65" data-name="Path 65" d="M747.483,48.482a2.631,2.631,0,0,1-1.827-.856" transform="translate(-718.063 463.606)" fill="none" stroke="#fff" stroke-linecap="round" stroke-width="1"/>
    <path id="Path_66" data-name="Path 66" d="M747.815,48.678a3.453,3.453,0,0,1-2.19-1" transform="translate(-725.887 477.727)" fill="none" stroke="#fff" stroke-linecap="round" stroke-width="1"/>
    <path id="Path_67" data-name="Path 67" d="M747.483,48.482a2.631,2.631,0,0,1-1.827-.856" transform="translate(-711.712 467.606)" fill="none" stroke="#fff" stroke-linecap="round" stroke-width="1"/>
  </g>
</svg>


