<svg xmlns="http://www.w3.org/2000/svg" width="219.065" height="476.177" viewBox="0 0 219.065 476.177">
  <path id="Path_145" data-name="Path 145" d="M1151.336,802.828c-4.5-14.29-1.686-82.608,14.33-130.655-18.545-5.9-56.477,30.346-91.88,28.66-2.529-29.5,41.3-96.094,41.3-96.094s-24.445,14.33-41.3,14.33S1119.3,510.33,1119.3,510.33s-33.772,20.789-45.518,14.33,80.528-186.019,112.948-187.515,107.9,184.143,102,187.515-44.675-14.33-44.675-14.33,52.023,103.29,44.675,108.738-37.089-14.33-37.089-14.33,46.361,91.037,37.089,96.094-84.293-28.66-84.293-28.66,24.689,114.868,13.487,130.655C1201.7,814.474,1171.771,818.963,1151.336,802.828Z" transform="translate(-1070.895 -337.135)" fill="#cfd8e6"/>
</svg>
