<svg xmlns="http://www.w3.org/2000/svg" width="360.012" height="85.091" viewBox="0 0 360.012 85.091">
  <g id="Group_30" data-name="Group 30" transform="translate(0 -260.47)">
    <path id="Path_137" data-name="Path 137" d="M1015,320.418s38.253,10.569,73.321,6.263,71.365-12.92,87.976-16,62.752-11.689,74.441-11.074,58.446.615,77.518-6.767S1375.012,283,1375.012,283v9.844s-27.685,0-46.756,6.767-63.368,8.613-77.518,7.383-56.6,19.687-74.441,23.993-77.518,18.457-87.976,18.457-63.587,1.23-73.321-4.307C1015.725,345.137,1015,320.418,1015,320.418Z" transform="translate(-1015 -4)" fill="#9db6cb"/>
    <g id="Group_10" data-name="Group 10">
      <path id="Path_123" data-name="Path 123" d="M1511.328,256.237c1.369-5.4,9.7-22.554,15.452-25.767,6.016,3.018,13.075,20.077,14.421,25.767-4.483-.591-7.606-4-15.074-4S1514.951,257.214,1511.328,256.237Z" transform="translate(-1244 30)" fill="#1d3557"/>
      <path id="Path_124" data-name="Path 124" d="M1511.328,256.237c1.369-5.4,9.7-22.554,15.452-25.767,6.016,3.018,13.075,20.077,14.421,25.767-4.483-.591-7.606-4-15.074-4S1514.951,257.214,1511.328,256.237Z" transform="translate(-1244 42.947)" fill="#1d3557"/>
      <path id="Path_125" data-name="Path 125" d="M1511.328,256.237c1.369-5.4,9.7-22.554,15.452-25.767,6.016,3.018,13.075,20.077,14.421,25.767-4.483-.591-7.606-4-15.074-4S1514.951,257.214,1511.328,256.237Z" transform="translate(-1245 57)" fill="#1d3557"/>
      <path id="Path_126" data-name="Path 126" d="M1293.259,333.546c3.254,1.4,5.077.741,7.622,0s-3.977-26.677-3.977-26.677S1290,332.143,1293.259,333.546Z" transform="translate(-1015.769 -7.558)" fill="#1d3557"/>
    </g>
    <path id="Path_127" data-name="Path 127" d="M711.805,51.573s13.757-11.851,16.85-24.649c5.012,3.466,22.022,5.385,25.328,3.306.267,4.532,3.626,15.357,9.811,17.6-2.613,2.346-10.558,4.319-14.77,4.266C746.464,52.306,711.805,51.573,711.805,51.573Z" transform="translate(-506.787 276.437)" fill="#1d3557"/>
    <path id="Path_128" data-name="Path 128" d="M735.839,27.41a53.893,53.893,0,0,0,19.236,24.325" transform="translate(-513.711 276.499)" fill="none" stroke="#737999" stroke-linecap="round" stroke-width="0.6"/>
    <path id="Path_129" data-name="Path 129" d="M707.19,51.563s14.646-15.133,19.548-25.635c9.986,3.013,14.385,3.8,25.884,3.19,2.854,9.7,11.242,19.355,11.242,19.355" transform="translate(-505.028 276.67)" fill="none" stroke="#fff" stroke-width="0.6"/>
    <path id="Path_130" data-name="Path 130" d="M724.305,52.535l-.6-4.919s4.673-3.11,5.692-5.914c1.635-3.6,3.349-12.592,3.349-12.592s2.281,13.632,9.092,16.267c-2.623,1.241-3.41,7.364-3.41,7.364Z" transform="translate(-510.83 275.492)" fill="#cfd8e6" stroke="#606580" stroke-width="0.2"/>
    <path id="Path_131" data-name="Path 131" d="M911.634,124.452s-12.4,2.4-18.656-1.2C902.022,130.333,911.634,124.452,911.634,124.452Z" transform="translate(-664.988 183.382)" fill="#606580"/>
    <path id="Path_132" data-name="Path 132" d="M911.634,125.4s1.77,11,7.778,14.987C911.895,139.871,911.634,125.4,911.634,125.4Z" transform="translate(-664.988 183.382)" fill="#606580"/>
    <path id="Path_133" data-name="Path 133" d="M885.822,118.738s.175,1.968,1.049,2.3" transform="translate(-664.299 183.569)" fill="none" stroke="#fff" stroke-linecap="round" stroke-width="1"/>
    <path id="Path_134" data-name="Path 134" d="M885.822,118.738s.175,1.968,1.049,2.3" transform="translate(825.587 987.98) rotate(-138)" fill="none" stroke="#fff" stroke-linecap="round" stroke-width="1"/>
    <path id="Path_135" data-name="Path 135" d="M885.822,118.738s.175,1.968,1.049,2.3" transform="matrix(-0.309, -0.951, 0.951, -0.309, 416.885, 1202.929)" fill="none" stroke="#fff" stroke-linecap="round" stroke-width="1"/>
    <path id="Path_136" data-name="Path 136" d="M885.822,118.738s.175,1.968,1.049,2.3" transform="translate(-616.475 680.195) rotate(-31)" fill="none" stroke="#fff" stroke-linecap="round" stroke-width="1"/>
  </g>
</svg>
