<!-- <svg xmlns="http://www.w3.org/2000/svg" xmlns:xlink="http://www.w3.org/1999/xlink" width="360" height="312.421" viewBox="0 0 360 312.421">
  <defs>
    <linearGradient id="linear-gradient" x1="0.5" x2="0.5" y2="1" gradientUnits="objectBoundingBox">
      <stop offset="0" stop-color="#bbccdb"/>
      <stop offset="1" stop-color="#c5d2e1" stop-opacity="0.50"/>
    </linearGradient>
  </defs>
  <path id="Path_122" data-name="Path 122" d="M2320.883-149.821s5.455-5.648,10.474,0,7.314,24.536,10.757,30.27,12.334,11.131,14.2,19.226,10.04,24.96,14.916,26.646,4.47,10.851,5.376,12.844,2.986-.814,3.076-4.433-.293-2.747-.851-8.411,10.084-1,12.522,6.42,8.6,4.392,11.038,5.067,4.693,8.076,9.283,12.461,15.059,2.361,17.784,0,9.036-19.9,14.342-19.226,11.9,12.143,13.625,11.468,9.178-10.793,12.621-10.119,9.179,17.877,16.923,17.877,10.9-16.865,15.059-17.877,5.306,9.782,10.756,10.119,10.183-10.119,13.051-8.77,7.375,17.171,12.191,10.793,0,6.071,4.159,8.77,1.721-10.793,10.326-3.036,3.836,31.115,11.9,24.622,14.019-49.076,20.365-50.594,3.048,38.7,5.02,44.523,1.542-19.141,2.868-21.249,1.506,10.878,2.438,12.817-.144-8.685,1.291-5.059,2.438,18.3,4.446,19.563,2.295-12.48,3.585-14.5.753,4.806,1.577,6.409.143-3.373,1.721,0,2.609,10.585,4.589,13.492.785-8.65,3.331-1.864c.54,1.439,2.058-5.239,4.073-6.985s1.273,5.588,3.989,0a76.244,76.244,0,0,0,5.466-18.082c2.056-10.877.646-18.245,2.758-25.427,1.934-2.261,6.24,11.455,6.121-11.519,3.058-5.528,7.86,12.725,12.82-20.465,3.411-6.7,6.316,9.92,13.879-14.467,5.175-3.411,5.541,22.841,16.132-18.154-.11,0,0,296.765,0,296.765h-360Z" transform="translate(-2320.883 152.331)" fill="url(#linear-gradient)"/>
</svg> -->

<svg xmlns="http://www.w3.org/2000/svg" xmlns:xlink="http://www.w3.org/1999/xlink" width="360" height="552.331" viewBox="0 0 360 552.331">
  <defs>
    <linearGradient id="linear-gradient" x1="0.5" x2="0.5" y2="1" gradientUnits="objectBoundingBox">
      <stop offset="0" stop-color="#bbccdb"/>
      <stop offset="1" stop-color="#cfd8e6" stop-opacity="0"/>
    </linearGradient>
  </defs>
  <path id="Path_122" data-name="Path 122" d="M2320.883-149.821s5.455-5.648,10.474,0,7.314,24.536,10.757,30.27,12.334,11.131,14.2,19.226,10.04,24.96,14.916,26.646,4.47,10.851,5.376,12.844,2.986-.814,3.076-4.433-.293-2.747-.851-8.411,10.084-1,12.522,6.42,8.6,4.392,11.038,5.067,4.693,8.076,9.283,12.461,15.059,2.361,17.784,0,9.036-19.9,14.342-19.226,11.9,12.143,13.625,11.468,9.178-10.793,12.621-10.119,9.179,17.877,16.923,17.877,10.9-16.865,15.059-17.877,5.306,9.782,10.756,10.119,10.183-10.119,13.051-8.77,7.375,17.171,12.191,10.793,0,6.071,4.159,8.77,1.721-10.793,10.326-3.036,3.836,31.115,11.9,24.622,14.019-49.076,20.365-50.594,3.048,38.7,5.02,44.523,1.542-19.141,2.868-21.249,1.506,10.878,2.438,12.817-.144-8.685,1.291-5.059,2.438,18.3,4.446,19.563,2.295-12.48,3.585-14.5.753,4.806,1.577,6.409.143-3.373,1.721,0,2.609,10.585,4.589,13.492.785-8.65,3.331-1.864c.54,1.439,2.058-5.239,4.073-6.985s1.273,5.588,3.989,0a76.244,76.244,0,0,0,5.466-18.082c2.056-10.877.646-18.245,2.758-25.427,1.934-2.261,6.24,11.455,6.121-11.519,3.058-5.528,7.86,12.725,12.82-20.465,3.411-6.7,6.316,9.92,13.879-14.467,5.175-3.411,5.541,22.841,16.132-18.154-.11,0,0,536.675,0,536.675h-360Z" transform="translate(-2320.883 152.331)" fill="url(#linear-gradient)"/>
</svg>


