<svg xmlns="http://www.w3.org/2000/svg" width="62.045" height="48.192" viewBox="0 0 62.045 48.192">
  <g id="Group_36" data-name="Group 36" transform="translate(704.458 -744.5)">
    <path id="Path_225" data-name="Path 225" d="M677.526,71.151s7.461-11.482,8.426-23.128c4.94-3.252,10.272-6.156,18.235-19.029,8.686,11.523,14.52,16.318,19.527,19.029-.278,5.749,6.016,20.382,8.864,23.128" transform="translate(-1378.526 718.006)" fill="none" stroke="#1d3557" stroke-linecap="round" stroke-linejoin="round" stroke-width="5"/>
    <path id="Path_228" data-name="Path 228" d="M710.516,51.843c1.9-1.275,8.343-2.3,10.9.345,2.917,2.584.831,10.551.185,13.347C717.869,64.07,710.872,54.665,710.516,51.843Z" transform="translate(-1383.437 726.206)" fill="#cfd8e6"/>
    <path id="Path_229" data-name="Path 229" d="M-670.937,789.739c-.547-.543-1.292-10.318,0-13.731.735,2.725,6.9,11.574,11.091,13.731C-663.452,790.535-670.39,790.282-670.937,789.739Z" transform="translate(-2 2)" fill="#1d3557"/>
  </g>
</svg>

