<svg xmlns="http://www.w3.org/2000/svg" width="60" height="55" viewBox="0 0 60 55">
  <g id="Group_36" data-name="Group 36" transform="translate(776.5 -744.5)">
    <path id="Path_224" data-name="Path 224" d="M27.5,0C42.688,0,55,9.475,55,21.162S42.688,42.324,27.5,42.324C18.166,42.437,8.329,50,8.329,50s2.533-11.781,0-13.666C3.215,32.529,0,27.134,0,21.162,0,9.475,12.312,0,27.5,0Z" transform="translate(-774 747)" fill="none" stroke="#1d3557" stroke-linejoin="round" stroke-width="5"/>
    <path id="ic_star_24px" d="M8.842,12.448,13.071,15l-1.122-4.81,3.736-3.236-4.919-.417L8.842,2,6.919,6.536,2,6.954,5.736,10.19,4.614,15Z" transform="translate(-770.132 758.833)" fill="#1d3557"/>
    <path id="ic_star_border_24px" d="M15.684,6.954l-4.919-.424L8.842,2,6.919,6.536,2,6.954,5.736,10.19,4.614,15l4.228-2.552L13.071,15l-1.115-4.81ZM8.842,11.168,6.269,12.722l.684-2.928L4.682,7.823l3-.26L8.842,4.805l1.17,2.764,3,.26L10.737,9.8l.684,2.928Z" transform="translate(-739.724 758.833)" fill="#1d3557"/>
    <path id="ic_star_half_24px" d="M15.684,6.954l-4.919-.424L8.842,2,6.919,6.536,2,6.954,5.736,10.19,4.614,15l4.228-2.552L13.071,15l-1.115-4.81ZM8.842,11.168V4.805l1.17,2.764,3,.26L10.737,9.8l.684,2.928Z" transform="translate(-754.928 758.833)" fill="#1d3557"/>
  </g>
</svg>

