<svg xmlns="http://www.w3.org/2000/svg" width="21.434" height="24.5" viewBox="0 0 21.434 24.5">
  <path id="Icon_awesome-user" data-name="Icon awesome-user" d="M9.856,10.052A5.216,5.216,0,0,1,4.469,5.026,5.216,5.216,0,0,1,9.856,0a5.216,5.216,0,0,1,5.388,5.026A5.216,5.216,0,0,1,9.856,10.052ZM.136,17.977c0-1.936,2.371-4.793,5.566-4.774h.87a7.807,7.807,0,0,0,6.137,0h.7a5.479,5.479,0,0,1,5.657,5.278v1.634A1.957,1.957,0,0,1,17.048,22H3.509" transform="translate(1.116 1.25)" fill="none" stroke="#bbccdb" stroke-linecap="round" stroke-width="2.5"/>
</svg>
